<svg t="1648443115009" class="icon" viewBox="0 0 1024 1024" version="1.1" xmlns="http://www.w3.org/2000/svg" p-id="626" width="32" height="32"><path d="M0 0m87.267556 0l849.464888 0q87.267556 0 87.267556 87.267556l0 849.464888q0 87.267556-87.267556 87.267556l-849.464888 0q-87.267556 0-87.267556-87.267556l0-849.464888q0-87.267556 87.267556-87.267556Z" fill="#ffffff" p-id="627" data-spm-anchor-id="a313x.7781069.0.i3" class="selected"></path><path d="M464.668444 365.340444h119.466667v61.212445h1.706667c16.611556-29.809778 56.888889-61.212444 117.987555-61.212445C830.577778 365.340444 853.333333 443.733333 853.333333 546.133333v207.872H728.177778V569.571556c0-43.918222-0.910222-100.579556-64.853334-100.579556s-74.752 47.900444-74.752 97.393778v187.619555H464.668444z m-216.177777 0h129.706666v388.664889H248.718222z m129.479111-107.975111a64.853333 64.853333 0 1 1-64.739556-64.853333 64.739556 64.739556 0 0 1 64.739556 64.853333z" fill="#D96230" p-id="628" data-spm-anchor-id="a313x.7781069.0.i4" class=""></path></svg>