<svg t="1648435692332" class="icon" viewBox="0 0 1024 1024" version="1.1" xmlns="http://www.w3.org/2000/svg" p-id="3227" width="32" height="32"><path d="M0 0m87.267556 0l849.464888 0q87.267556 0 87.267556 87.267556l0 849.464888q0 87.267556-87.267556 87.267556l-849.464888 0q-87.267556 0-87.267556-87.267556l0-849.464888q0-87.267556 87.267556-87.267556Z" fill="#ffffff" p-id="3228" data-spm-anchor-id="a313x.7781069.0.i17" class=""></path><path d="M876.088889 310.272a271.132444 271.132444 0 0 1-78.279111 21.390222 136.533333 136.533333 0 0 0 59.960889-75.320889 274.432 274.432 0 0 1-86.471111 32.995556 136.533333 136.533333 0 0 0-231.879112 124.359111 386.844444 386.844444 0 0 1-280.803555-142.449778 136.533333 136.533333 0 0 0 42.097778 182.044445A136.533333 136.533333 0 0 1 238.933333 436.110222v1.706667a136.533333 136.533333 0 0 0 109.340445 133.575111 136.533333 136.533333 0 0 1-61.667556 2.389333 136.533333 136.533333 0 0 0 127.317334 94.663111 273.066667 273.066667 0 0 1-201.841778 56.888889A385.479111 385.479111 0 0 0 420.977778 786.090667c250.311111 0 387.640889-207.644444 387.640889-387.754667v-17.635556a272.042667 272.042667 0 0 0 68.266666-70.428444z" fill="#D96230" p-id="3229" data-spm-anchor-id="a313x.7781069.0.i18" class="selected"></path></svg>