<svg t="1648435547217" class="icon" viewBox="0 0 1024 1024" version="1.1" xmlns="http://www.w3.org/2000/svg" p-id="2236" width="32" height="32"><path d="M0 0m87.267556 0l849.464888 0q87.267556 0 87.267556 87.267556l0 849.464888q0 87.267556-87.267556 87.267556l-849.464888 0q-87.267556 0-87.267556-87.267556l0-849.464888q0-87.267556 87.267556-87.267556Z" fill="#ffffff" p-id="2237" data-spm-anchor-id="a313x.7781069.0.i4" class=""></path><path d="M583.111111 271.587556H705.422222V125.155556H583.111111A171.463111 171.463111 0 0 0 411.875556 295.822222v73.386667h-97.848889v146.773333h97.848889v391.395556h146.773333V516.209778h122.311111L705.422222 369.436444H558.648889V295.822222a24.917333 24.917333 0 0 1 24.462222-24.462222z" fill="#D96230" p-id="2238" data-spm-anchor-id="a313x.7781069.0.i6" class="selected"></path></svg>